<svg width="30" height="30" fill="none" xmlns="http://www.w3.org/2000/svg"><path d="M26.648 25.034l-7.608-7.608a8.71 8.71 0 001.82-5.356 8.74 8.74 0 00-2.576-6.214 8.724 8.724 0 00-6.214-2.575 8.736 8.736 0 00-6.214 2.575 8.72 8.72 0 00-2.575 6.214c0 2.347.917 4.556 2.575 6.214a8.72 8.72 0 006.214 2.575 8.718 8.718 0 005.353-1.816l7.608 7.605a.238.238 0 00.262.053.237.237 0 00.078-.053l1.277-1.274a.238.238 0 00.053-.262.238.238 0 00-.053-.078zm-9.937-8.323a6.527 6.527 0 01-4.64 1.922A6.527 6.527 0 017.43 16.71a6.527 6.527 0 01-1.922-4.64c0-1.753.682-3.402 1.922-4.641a6.527 6.527 0 014.64-1.922 6.51 6.51 0 014.64 1.922 6.527 6.527 0 011.923 4.64 6.522 6.522 0 01-1.922 4.64z" fill="#fff"/></svg>